<svg width="83" height="54" viewBox="0 0 83 54" fill="none" xmlns="http://www.w3.org/2000/svg">
<path d="M59.9998 11.1992H4.7998V52.6992H59.9998V11.1992Z" fill="white" stroke="black" stroke-width="1.5" stroke-miterlimit="10" stroke-linecap="round" stroke-linejoin="round"></path>
<path d="M1.7002 52.6992H81.7002" stroke="black" stroke-width="1.5" stroke-miterlimit="10" stroke-linecap="round" stroke-linejoin="round"></path>
<path d="M73.6006 46V52.7" stroke="black" stroke-width="1.5" stroke-miterlimit="10" stroke-linecap="round" stroke-linejoin="round"></path>
<path d="M81.7004 19.0996H65.4004V47.2996H81.7004V19.0996Z" fill="white" stroke="black" stroke-width="1.5" stroke-miterlimit="10" stroke-linecap="round" stroke-linejoin="round"></path>
<path d="M81.7004 39.3984H65.4004V47.2984H81.7004V39.3984Z" fill="#5956e9" stroke="black" stroke-width="1.5" stroke-miterlimit="10"></path>
<path d="M34.5998 21.6992H10.7998V41.0992H34.5998V21.6992Z" fill="white" stroke="black" stroke-width="1.5" stroke-miterlimit="10" stroke-linecap="round" stroke-linejoin="round"></path>
<path d="M54.1 21.6992H40.5V52.6992H54.1V21.6992Z" fill="#5956e9" stroke="black" stroke-width="1.5" stroke-miterlimit="10"></path>
<path d="M31.1004 16.9988C33.4004 17.5988 35.8004 16.1988 36.4004 13.8988C36.5004 13.4988 36.5004 13.1988 36.5004 12.7988V1.29883H27.9004V12.7988C27.9004 13.1988 27.9004 13.4988 28.0004 13.8988C28.4004 15.3988 29.6004 16.5988 31.1004 16.9988Z" fill="white" stroke="black" stroke-width="1.5" stroke-miterlimit="10" stroke-linecap="round" stroke-linejoin="round"></path>
<path d="M22.4998 16.9988C24.7998 17.5988 27.1998 16.1988 27.7998 13.8988C27.8998 13.4988 27.8998 13.1988 27.8998 12.7988V1.29883H20.5998L19.2998 12.8988C19.2998 13.1988 19.2998 13.5988 19.3998 13.8988C19.7998 15.3988 20.8998 16.5988 22.4998 16.9988Z" fill="#5956e9" stroke="black" stroke-width="1.5" stroke-miterlimit="10"></path>
<path d="M13.6004 16.9992C15.9004 17.5992 18.3004 16.1992 18.9004 13.8992C19.0004 13.4992 19.0004 13.1992 19.0004 12.7992C19.0004 12.6992 19.0004 12.6992 19.0004 12.5992L20.3004 1.19922H11.7004L10.4004 12.7992C10.4004 13.0992 10.4004 13.4992 10.5004 13.7992C10.9004 15.3992 12.1004 16.5992 13.6004 16.9992Z" fill="white" stroke="black" stroke-width="1.5" stroke-miterlimit="10" stroke-linecap="round" stroke-linejoin="round"></path>
<path d="M10.3002 12.5992L11.6002 1.19922H4.30019L1.7002 12.8992C1.8002 15.1992 3.70019 17.0992 6.00019 17.0992C6.80019 17.0992 7.5002 16.8992 8.2002 16.4992C9.2002 15.8992 9.9002 14.9992 10.2002 13.7992C10.3002 13.3992 10.3002 13.0992 10.3002 12.6992C10.3002 12.6992 10.3002 12.6992 10.3002 12.5992Z" fill="#5956e9" stroke="black" stroke-width="1.5" stroke-miterlimit="10"></path>
<path d="M39.7 16.9988C42 17.5988 44.4 16.1988 45 13.8988C45.1 13.5988 45.1 13.1988 45.1 12.8988L43.8 1.29883H36.5V12.7988C36.5 13.1988 36.5 13.4988 36.6 13.7988C37 15.3988 38.2 16.5988 39.7 16.9988Z" fill="#5956e9" stroke="black" stroke-width="1.5" stroke-miterlimit="10"></path>
<path d="M45.0998 12.7992C45.0998 13.1992 45.0998 13.4992 45.1998 13.7992C45.5998 15.2992 46.7998 16.4992 48.2998 16.8992C50.5998 17.4992 52.9998 16.0992 53.5998 13.7992C53.6998 13.4992 53.6998 13.0992 53.6998 12.7992L52.3998 1.19922H43.7998L45.0998 12.5992C45.0998 12.6992 45.0998 12.6992 45.0998 12.7992Z" fill="white" stroke="black" stroke-width="1.5" stroke-miterlimit="10" stroke-linecap="round" stroke-linejoin="round"></path>
<path d="M54.0998 12.7988C54.0998 13.1988 54.0998 13.4988 54.1998 13.8988C54.4998 14.9988 55.1998 15.9988 56.1998 16.5988C56.8998 16.9988 57.5998 17.1988 58.3998 17.1988C60.6998 17.1988 62.5998 15.3988 62.6998 12.9988L60.0998 1.29883H52.7998L54.0998 12.6988C54.0998 12.6988 54.0998 12.6988 54.0998 12.7988Z" fill="#5956e9" stroke="black" stroke-width="1.5" stroke-miterlimit="10"></path>
<path d="M21.3006 28.2988L18.1006 32.7988" stroke="black" stroke-width="1.5" stroke-miterlimit="10" stroke-linecap="round" stroke-linejoin="round"></path>
<path d="M25.9002 29.1992L22.7002 33.6992" stroke="black" stroke-width="1.5" stroke-miterlimit="10" stroke-linecap="round" stroke-linejoin="round"></path>
<path d="M43.9004 34.0996V38.6996" stroke="black" stroke-width="1.5" stroke-miterlimit="10" stroke-linecap="round" stroke-linejoin="round"></path>
</svg>