<svg width="74" height="70" viewBox="0 0 74 70" fill="none" xmlns="http://www.w3.org/2000/svg">
<path d="M14.4001 51.6991C15.4001 49.4991 14.7001 46.8991 12.8001 45.4991C14.1001 43.7991 13.8001 41.3991 12.1001 40.0991C10.4001 38.7991 8.00007 39.0991 6.70007 40.7991C5.60007 42.1991 5.60007 44.0991 6.70007 45.4991C4.80007 46.8991 4.10007 49.4991 5.10007 51.6991C2.70007 54.2991 2.80007 58.3991 5.40007 60.7991C8.00007 63.1991 12.1001 63.0991 14.5001 60.4991C16.8001 57.9991 16.8001 54.1991 14.4001 51.6991Z" fill="#5956e9" stroke="black" stroke-width="1.5" stroke-miterlimit="10"></path>
<path d="M9.7002 60.2988V68.1988" stroke="black" stroke-width="1.5" stroke-miterlimit="10"></path>
<path d="M69.1003 51.6991C70.1003 49.4991 69.4003 46.8991 67.5003 45.4991C68.8003 43.7991 68.5003 41.3991 66.8003 40.0991C65.1003 38.7991 62.7003 39.0991 61.4003 40.7991C60.3003 42.1991 60.3003 44.0991 61.4003 45.4991C59.5003 46.8991 58.8003 49.4991 59.8003 51.6991C57.4003 54.2991 57.5003 58.3991 60.1003 60.7991C62.7003 63.1991 66.8003 63.0991 69.2003 60.4991C71.4003 57.9991 71.4003 54.1991 69.1003 51.6991Z" fill="#5956e9" stroke="black" stroke-width="1.5" stroke-miterlimit="10"></path>
<path d="M64.4004 60.2988V68.1988" stroke="black" stroke-width="1.5" stroke-miterlimit="10"></path>
<path d="M53.1998 4.19922H20.7998V68.5992H53.1998V4.19922Z" stroke="black" stroke-width="1.5" stroke-miterlimit="10" stroke-linecap="round" stroke-linejoin="round"></path>
<path d="M30.1006 11.7988H25.6006V16.2988H30.1006V11.7988Z" stroke="black" stroke-width="1.5" stroke-miterlimit="10" stroke-linecap="round" stroke-linejoin="round"></path>
<path d="M39.3008 11.7988H34.8008V16.2988H39.3008V11.7988Z" stroke="black" stroke-width="1.5" stroke-miterlimit="10" stroke-linecap="round" stroke-linejoin="round"></path>
<path d="M48.501 11.7988H44.001V16.2988H48.501V11.7988Z" stroke="black" stroke-width="1.5" stroke-miterlimit="10" stroke-linecap="round" stroke-linejoin="round"></path>
<path d="M30.1006 20.8984H25.6006V25.3984H30.1006V20.8984Z" stroke="black" stroke-width="1.5" stroke-miterlimit="10" stroke-linecap="round" stroke-linejoin="round"></path>
<path d="M39.3008 20.8984H34.8008V25.3984H39.3008V20.8984Z" stroke="black" stroke-width="1.5" stroke-miterlimit="10" stroke-linecap="round" stroke-linejoin="round"></path>
<path d="M48.501 20.8984H44.001V25.3984H48.501V20.8984Z" stroke="black" stroke-width="1.5" stroke-miterlimit="10" stroke-linecap="round" stroke-linejoin="round"></path>
<path d="M30.1006 29.8984H25.6006V34.3984H30.1006V29.8984Z" stroke="black" stroke-width="1.5" stroke-miterlimit="10" stroke-linecap="round" stroke-linejoin="round"></path>
<path d="M39.3008 29.8984H34.8008V34.3984H39.3008V29.8984Z" stroke="black" stroke-width="1.5" stroke-miterlimit="10" stroke-linecap="round" stroke-linejoin="round"></path>
<path d="M48.501 29.8984H44.001V34.3984H48.501V29.8984Z" stroke="black" stroke-width="1.5" stroke-miterlimit="10" stroke-linecap="round" stroke-linejoin="round"></path>
<path d="M30.1006 38.998H25.6006V43.498H30.1006V38.998Z" stroke="black" stroke-width="1.5" stroke-miterlimit="10" stroke-linecap="round" stroke-linejoin="round"></path>
<path d="M39.3008 38.998H34.8008V43.498H39.3008V38.998Z" stroke="black" stroke-width="1.5" stroke-miterlimit="10" stroke-linecap="round" stroke-linejoin="round"></path>
<path d="M48.501 38.998H44.001V43.498H48.501V38.998Z" stroke="black" stroke-width="1.5" stroke-miterlimit="10" stroke-linecap="round" stroke-linejoin="round"></path>
<path d="M30.1006 48.0996H25.6006V52.5996H30.1006V48.0996Z" stroke="black" stroke-width="1.5" stroke-miterlimit="10" stroke-linecap="round" stroke-linejoin="round"></path>
<path d="M39.3008 48.0996H34.8008V52.5996H39.3008V48.0996Z" stroke="black" stroke-width="1.5" stroke-miterlimit="10" stroke-linecap="round" stroke-linejoin="round"></path>
<path d="M48.501 48.0996H44.001V52.5996H48.501V48.0996Z" stroke="black" stroke-width="1.5" stroke-miterlimit="10" stroke-linecap="round" stroke-linejoin="round"></path>
<path d="M43.8998 57.3984H30.2998V68.6984H43.8998V57.3984Z" fill="#5956e9" stroke="black" stroke-width="1.5" stroke-miterlimit="10"></path>
<path d="M37.1006 57.3984V68.5984" stroke="black" stroke-width="1.5" stroke-miterlimit="10" stroke-linecap="round" stroke-linejoin="round"></path>
<path d="M1.7002 68.5996H72.4002" stroke="black" stroke-width="1.5" stroke-miterlimit="10" stroke-linecap="round" stroke-linejoin="round"></path>
<path d="M55.1 1.69922H19V6.69922H55.1V1.69922Z" fill="#5956e9" stroke="black" stroke-width="1.5" stroke-miterlimit="10"></path>
</svg>