<svg width="100" height="100" viewBox="0 0 100 100" fill="none" xmlns="http://www.w3.org/2000/svg">
                  <g filter="url(#filter0_d)">
                    <path d="M90 50.7059C90 55.9035 85.7859 55.4118 80.5882 55.4118H19.4118C14.2141 55.4118 10 55.9035 10 50.7059L14.7059 22.4706C15 17.96 18.92 13.0588 24.1176 13.0588H75.8824C81.08 13.0588 84.8024 18.2541 85.2941 22.4706L90 50.7059Z" fill="#119E82"></path>
                    <path d="M73.5295 34.2353C73.5295 36.833 71.4212 38.9412 68.8236 38.9412H31.1765C28.5789 38.9412 26.4706 36.833 26.4706 34.2353V15.4118C26.4706 12.8118 28.5789 10.7059 31.1765 10.7059H68.8236C71.4212 10.7059 73.5295 12.8118 73.5295 15.4118V34.2353Z" fill="#CCD6DD"></path>
                    <path d="M78.2354 43.6471C78.2354 46.2447 76.1272 48.353 73.5295 48.353H26.4707C23.8731 48.353 21.7648 46.2447 21.7648 43.6471V24.8236C21.7648 22.2259 23.8731 20.1177 26.4707 20.1177H73.5295C76.1272 20.1177 78.2354 22.2259 78.2354 24.8236V43.6471Z" fill="#E1E8ED"></path>
                    <path d="M82.9411 53.0588C82.9411 55.6565 80.8328 57.7647 78.2352 57.7647H21.7646C19.167 57.7647 17.0587 55.6565 17.0587 53.0588V34.2353C17.0587 31.6377 19.167 29.5294 21.7646 29.5294H78.2352C80.8328 29.5294 82.9411 31.6377 82.9411 34.2353V53.0588Z" fill="#F5F8FA"></path>
                    <path d="M90 76.5882C90 81.7858 85.7859 86 80.5882 86H19.4118C14.2141 86 10 81.7858 10 76.5882V50.7058C10 45.5082 14.2141 41.2941 19.4118 41.2941H80.5882C85.7859 41.2941 90 45.5082 90 50.7058V76.5882Z" fill="#1ABC9C"></path>
                    <path d="M59.4119 6H47.6472C45.0495 6 42.9413 8.10588 42.9413 10.7059V13.0588H52.353C54.9507 13.0588 57.0589 15.1671 57.0589 17.7647H59.4119C62.0095 17.7647 64.1178 15.6565 64.1178 13.0588V10.7059C64.1178 8.10588 62.0095 6 59.4119 6Z" fill="#B2B7D0"></path>
                    <path d="M49.9999 15.4117H38.2352C35.6376 15.4117 33.5294 17.52 33.5294 20.1176V22.4706H42.9411C45.5388 22.4706 47.647 24.5788 47.647 27.1764H49.9999C52.5976 27.1764 54.7058 25.0682 54.7058 22.4706V20.1176C54.7058 17.52 52.5976 15.4117 49.9999 15.4117Z" fill="#41D4FF"></path>
                    <path d="M45.2942 31.8823C45.2942 34.48 43.186 36.5882 40.5883 36.5882H28.8236C26.226 36.5882 24.1177 34.48 24.1177 31.8823V29.5294C24.1177 26.9317 26.226 24.8235 28.8236 24.8235H40.5883C43.186 24.8235 45.2942 26.9317 45.2942 29.5294V31.8823Z" fill="#00D8C6"></path>
                    <path d="M66.4705 69.5294C66.4705 72.1271 64.3623 74.2353 61.7647 74.2353H38.2352C35.6376 74.2353 33.5294 72.1271 33.5294 69.5294V57.7647C33.5294 55.1671 35.6376 53.0588 38.2352 53.0588H61.7647C64.3623 53.0588 66.4705 55.1671 66.4705 57.7647V69.5294Z" fill="#119E82"></path>
                    <path d="M61.7646 67.1765C61.7646 68.4777 60.7128 69.5295 59.4116 69.5295H40.5881C39.2893 69.5295 38.2352 68.4777 38.2352 67.1765V60.1177C38.2352 58.8165 39.2893 57.7648 40.5881 57.7648H59.4116C60.7128 57.7648 61.7646 58.8165 61.7646 60.1177V67.1765Z" fill="#F5F8FA"></path>
                  </g>
                  <defs>
                    <filter id="filter0_d" x="0" y="0" width="100" height="100" filterUnits="userSpaceOnUse" color-interpolation-filters="sRGB">
                      <feFlood flood-opacity="0" result="BackgroundImageFix"></feFlood>
                      <feColorMatrix in="SourceAlpha" type="matrix" values="0 0 0 0 0 0 0 0 0 0 0 0 0 0 0 0 0 0 127 0"></feColorMatrix>
                      <feOffset dy="4"></feOffset>
                      <feGaussianBlur stdDeviation="5"></feGaussianBlur>
                      <feColorMatrix type="matrix" values="0 0 0 0 0.101961 0 0 0 0 0.737255 0 0 0 0 0.611765 0 0 0 0.24 0"></feColorMatrix>
                      <feBlend mode="normal" in2="BackgroundImageFix" result="effect1_dropShadow"></feBlend>
                      <feBlend mode="normal" in="SourceGraphic" in2="effect1_dropShadow" result="shape"></feBlend>
                    </filter>
                  </defs>
                </svg>