<svg width="85" height="66" viewBox="0 0 85 66" fill="none" xmlns="http://www.w3.org/2000/svg">
<path d="M39 5.80078V1.30078H60.1V5.80078" fill="white"></path>
<path d="M39 5.80078V1.30078H60.1V5.80078" stroke="black" stroke-width="1.5" stroke-miterlimit="10" stroke-linecap="round" stroke-linejoin="round"></path>
<path d="M34.4004 25.8008V6.80078H64.7004V40.8008" fill="white"></path>
<path d="M34.4004 25.8008V6.80078H64.7004V40.8008" stroke="black" stroke-width="1.5" stroke-miterlimit="10" stroke-linecap="round" stroke-linejoin="round"></path>
<path d="M81.2008 46.6011C82.2008 44.4011 81.5009 41.9011 79.6009 40.5011C80.9009 38.8011 80.6009 36.4011 78.9009 35.1011C77.2009 33.8011 74.8009 34.1011 73.5009 35.8011C72.5009 37.2011 72.5009 39.1011 73.5009 40.4011C71.6009 41.8011 70.9009 44.4011 71.9009 46.5011C69.5009 49.1011 69.6008 53.1011 72.2008 55.5011C74.8008 57.9011 78.8008 57.8011 81.2008 55.2011C83.5008 52.8011 83.5008 49.0011 81.2008 46.6011Z" fill="#5956e9" stroke="black" stroke-width="1.5" stroke-miterlimit="10"></path>
<path d="M76.5 58.3008V65.0008" stroke="black" stroke-width="1.5" stroke-miterlimit="10" stroke-linecap="round" stroke-linejoin="round"></path>
<path d="M29.6004 32.6016H9.90039V62.3016H29.6004V32.6016Z" fill="white" stroke="black" stroke-width="1.5" stroke-miterlimit="10" stroke-linecap="round" stroke-linejoin="round"></path>
<path d="M41.1004 25.1016H21.4004V61.8016H41.1004V25.1016Z" fill="white" stroke="black" stroke-width="1.5" stroke-miterlimit="10" stroke-linecap="round" stroke-linejoin="round"></path>
<path d="M57.6002 65.0016C57.7002 64.5016 57.8002 64.0016 57.8002 63.5016C57.8002 59.4016 54.5002 56.1016 50.4002 56.1016C50.1002 56.1016 49.8002 56.1016 49.5002 56.2016C48.7002 53.0016 45.8002 50.6016 42.3002 50.6016C38.7002 50.6016 35.7002 53.1016 35.1002 56.5016C34.4002 56.3016 33.6002 56.1016 32.8002 56.1016C31.8002 56.1016 30.9002 56.3016 30.1002 56.6016C29.3002 53.4016 26.4002 51.1016 23.0002 51.1016C18.9002 51.1016 15.6002 54.4016 15.6002 58.5016C15.6002 58.7016 15.6002 58.9016 15.6002 59.1016C15.1002 59.0016 14.6002 59.0016 14.0002 59.0016C10.4002 59.0016 7.4002 61.6016 6.7002 65.0016H57.6002Z" fill="#5956e9" stroke="black" stroke-width="1.5" stroke-miterlimit="10"></path>
<path d="M58 45.9004V65.0004" stroke="black" stroke-width="1.5" stroke-miterlimit="10" stroke-linecap="round" stroke-linejoin="round"></path>
<path d="M58.0002 51.6016C63.1364 51.6016 67.3002 46.229 67.3002 39.6016C67.3002 32.9741 63.1364 27.6016 58.0002 27.6016C52.864 27.6016 48.7002 32.9741 48.7002 39.6016C48.7002 46.229 52.864 51.6016 58.0002 51.6016Z" fill="#5956e9" stroke="black" stroke-width="1.5" stroke-miterlimit="10"></path>
<path d="M39.6006 13.5H59.0006" stroke="black" stroke-width="1.5" stroke-miterlimit="10" stroke-linecap="round" stroke-linejoin="round"></path>
<path d="M39.6006 19.1016H59.0006" stroke="black" stroke-width="1.5" stroke-miterlimit="10" stroke-linecap="round" stroke-linejoin="round"></path>
<path d="M25.7002 30.4004H28.9002" stroke="black" stroke-width="1.5" stroke-miterlimit="10" stroke-linecap="round" stroke-linejoin="round"></path>
<path d="M25.7002 35.7012H28.9002" stroke="black" stroke-width="1.5" stroke-miterlimit="10" stroke-linecap="round" stroke-linejoin="round"></path>
<path d="M25.7002 41.0996H28.9002" stroke="black" stroke-width="1.5" stroke-miterlimit="10" stroke-linecap="round" stroke-linejoin="round"></path>
<path d="M25.7002 46.4004H28.9002" stroke="black" stroke-width="1.5" stroke-miterlimit="10" stroke-linecap="round" stroke-linejoin="round"></path>
<path d="M33.7002 30.4004H36.8002" stroke="black" stroke-width="1.5" stroke-miterlimit="10" stroke-linecap="round" stroke-linejoin="round"></path>
<path d="M33.7002 35.7012H36.8002" stroke="black" stroke-width="1.5" stroke-miterlimit="10" stroke-linecap="round" stroke-linejoin="round"></path>
<path d="M33.7002 41.0996H36.8002" stroke="black" stroke-width="1.5" stroke-miterlimit="10" stroke-linecap="round" stroke-linejoin="round"></path>
<path d="M33.7002 46.4004H36.8002" stroke="black" stroke-width="1.5" stroke-miterlimit="10" stroke-linecap="round" stroke-linejoin="round"></path>
<path d="M14 37.9004H17.1" stroke="black" stroke-width="1.5" stroke-miterlimit="10" stroke-linecap="round" stroke-linejoin="round"></path>
<path d="M14 43.3008H17.1" stroke="black" stroke-width="1.5" stroke-miterlimit="10" stroke-linecap="round" stroke-linejoin="round"></path>
<path d="M14 48.6016H17.1" stroke="black" stroke-width="1.5" stroke-miterlimit="10" stroke-linecap="round" stroke-linejoin="round"></path>
<path d="M65 14.9004H75.3V33.2004" fill="white"></path>
<path d="M65 14.9004H75.3V33.2004" stroke="black" stroke-width="1.5" stroke-miterlimit="10" stroke-linecap="round" stroke-linejoin="round"></path>
<path d="M0.900391 65H84.0004" stroke="black" stroke-width="1.5" stroke-miterlimit="10" stroke-linecap="round" stroke-linejoin="round"></path>
</svg>