<svg width="75" height="74" viewBox="0 0 75 74" fill="none" xmlns="http://www.w3.org/2000/svg">
<path d="M37.4996 64.5996H27.0996V72.3996H37.4996V64.5996Z" fill="#5956e9" stroke="black" stroke-width="1.5" stroke-miterlimit="10"></path>
<path d="M65.0992 64.5996H54.6992V72.3996H65.0992V64.5996Z" fill="#5956e9" stroke="black" stroke-width="1.5" stroke-miterlimit="10"></path>
<path d="M8.7998 27.6992V50.1992" stroke="black" stroke-width="1.5" stroke-miterlimit="10" stroke-linecap="round" stroke-linejoin="round"></path>
<path d="M13.6 27.6996H4C2.3 27.6996 1 26.3996 1 24.6996V15.0996C1 13.3996 2.3 12.0996 4 12.0996H13.6C15.3 12.0996 16.6 13.3996 16.6 15.0996V24.6996C16.6 26.3996 15.2 27.6996 13.6 27.6996Z" fill="white" stroke="black" stroke-width="1.5" stroke-miterlimit="10" stroke-linecap="round" stroke-linejoin="round"></path>
<path d="M12.1 50.5H5.5V72.3H12.1V50.5Z" fill="#5956e9" stroke="black" stroke-width="1.5" stroke-miterlimit="10"></path>
<path d="M70.7 57.2H21.5V6.5C21.5 3.7 23.8 1.5 26.5 1.5H65.7C68.5 1.5 70.7 3.8 70.7 6.5V57.2Z" fill="#5956e9" stroke="black" stroke-width="1.5" stroke-miterlimit="10"></path>
<path fill-rule="evenodd" clip-rule="evenodd" d="M39.2002 56.9004V52.9004C39.2002 52.1004 40.2002 51.4004 41.4002 51.4004H50.8002C52.0002 51.4004 53.0002 52.1004 53.0002 52.9004V56.9004" fill="white"></path>
<path d="M39.2002 56.9004V52.9004C39.2002 52.1004 40.2002 51.4004 41.4002 51.4004H50.8002C52.0002 51.4004 53.0002 52.1004 53.0002 52.9004V56.9004" stroke="black" stroke-width="1.5" stroke-miterlimit="10" stroke-linecap="round" stroke-linejoin="round"></path>
<path d="M70.7 57.1992H21.5V57.8992L24.2 65.4992H43H49.2H68L70.7 57.8992V57.1992Z" fill="white" stroke="black" stroke-width="1.5" stroke-miterlimit="10" stroke-linecap="round" stroke-linejoin="round"></path>
<path d="M21.5 38.2008L22.1 38.4008C37.9 42.9008 54.9 42.8008 70.7 38.2008V12.8008H21.5V38.2008Z" fill="white" stroke="black" stroke-width="1.5" stroke-miterlimit="10" stroke-linecap="round" stroke-linejoin="round"></path>
<path d="M33 12.7996V8.79961C33 6.99961 34.4 5.59961 36.2 5.59961H55.9C57.7 5.59961 59.1 6.99961 59.1 8.79961V12.7996H33Z" fill="white"></path>
<path d="M55.9002 6.40039C57.3002 6.40039 58.4002 7.50039 58.4002 8.90039V12.2004H33.8002V8.90039C33.8002 7.50039 34.9002 6.40039 36.3002 6.40039H55.9002ZM55.9002 4.90039H36.2002C34.0002 4.90039 32.2002 6.70039 32.2002 8.90039V13.7004H59.8002V8.90039C59.9002 6.60039 58.1002 4.90039 55.9002 4.90039Z" fill="black"></path>
<path d="M44.4 24.5L39 30.1" stroke="black" stroke-width="1.5" stroke-miterlimit="10" stroke-linecap="round" stroke-linejoin="round"></path>
<path d="M53.2002 24.5L47.7002 30.1" stroke="black" stroke-width="1.5" stroke-miterlimit="10" stroke-linecap="round" stroke-linejoin="round"></path>
<path d="M30.5004 51.7C32.4886 51.7 34.1004 50.0882 34.1004 48.1C34.1004 46.1118 32.4886 44.5 30.5004 44.5C28.5122 44.5 26.9004 46.1118 26.9004 48.1C26.9004 50.0882 28.5122 51.7 30.5004 51.7Z" fill="white" stroke="black" stroke-width="1.5" stroke-miterlimit="10" stroke-linecap="round" stroke-linejoin="round"></path>
<path d="M61.7006 51.7C63.6888 51.7 65.3006 50.0882 65.3006 48.1C65.3006 46.1118 63.6888 44.5 61.7006 44.5C59.7124 44.5 58.1006 46.1118 58.1006 48.1C58.1006 50.0882 59.7124 51.7 61.7006 51.7Z" fill="white" stroke="black" stroke-width="1.5" stroke-miterlimit="10" stroke-linecap="round" stroke-linejoin="round"></path>
<path d="M1 72.5H73.4" stroke="black" stroke-width="1.5" stroke-miterlimit="10" stroke-linecap="round" stroke-linejoin="round"></path>
</svg>