<svg width="45px" height="45px" viewBox="0 0 45 45" version="1.1" xmlns="http://www.w3.org/2000/svg" xmlns:xlink="http://www.w3.org/1999/xlink">
    <title>Untitled</title>
    <defs>
        <linearGradient x1="38.3768183%" y1="0%" x2="32.6063205%" y2="92.1864368%" id="linearGradient-1">
            <stop stop-color="#5956e9" offset="0%"></stop>
            <stop stop-color="#5956e9" offset="100%"></stop>
        </linearGradient>
        <linearGradient x1="49.4662774%" y1="0%" x2="45.1740517%" y2="68.5701149%" id="linearGradient-2">
            <stop stop-color="#5956e9" offset="0%"></stop>
            <stop stop-color="#5956e9" offset="100%"></stop>
        </linearGradient>
        <linearGradient x1="15.9673059%" y1="0%" x2="10.1325777%" y2="93.2044444%" id="linearGradient-3">
            <stop stop-color="#5956e9" offset="0%"></stop>
            <stop stop-color="#5956e9" offset="100%"></stop>
        </linearGradient>
        <linearGradient x1="15.966108%" y1="2.77777701e-05%" x2="10.1319217%" y2="93.2044463%" id="linearGradient-4">
            <stop stop-color="#5956e9" offset="0%"></stop>
            <stop stop-color="#5956e9" offset="100%"></stop>
        </linearGradient>
        <linearGradient x1="15.9660891%" y1="0%" x2="10.1318803%" y2="93.2044444%" id="linearGradient-5">
            <stop stop-color="#5956e9" offset="0%"></stop>
            <stop stop-color="#5956e9" offset="100%"></stop>
        </linearGradient>
        <linearGradient x1="15.9673248%" y1="2.77777701e-05%" x2="10.1325998%" y2="93.2044463%" id="linearGradient-6">
            <stop stop-color="#5956e9" offset="0%"></stop>
            <stop stop-color="#5956e9" offset="100%"></stop>
        </linearGradient>
        <linearGradient x1="35.0979714%" y1="2.80108828e-05%" x2="29.3065825%" y2="92.5244556%" id="linearGradient-7">
            <stop stop-color="#5956e9" offset="0%"></stop>
            <stop stop-color="#5956e9" offset="100%"></stop>
        </linearGradient>
        <linearGradient x1="35.0979631%" y1="0%" x2="29.3065709%" y2="92.5244535%" id="linearGradient-8">
            <stop stop-color="#5956e9" offset="0%"></stop>
            <stop stop-color="#5956e9" offset="100%"></stop>
        </linearGradient>
        <linearGradient x1="34.6500324%" y1="2.80108828e-05%" x2="28.8561793%" y2="92.5591891%" id="linearGradient-9">
            <stop stop-color="#5956e9" offset="0%"></stop>
            <stop stop-color="#5956e9" offset="100%"></stop>
        </linearGradient>
        <linearGradient x1="35.0981585%" y1="0%" x2="29.3064985%" y2="92.5244535%" id="linearGradient-10">
            <stop stop-color="#5956e9" offset="0%"></stop>
            <stop stop-color="#5956e9" offset="100%"></stop>
        </linearGradient>
    </defs>
    <g id="Page-1" stroke="none" stroke-width="1" fill="none" fill-rule="evenodd">
        <g id="road-Group-2" fill-rule="nonzero">
            <g id="road-Group"> 
                <polygon id="Path" fill="url(#linearGradient-1)" points="32.9578 44.25 30.7106 0.75 14.2316 0.75 11.9845 44.25"></polygon>
                <polygon id="Path" fill="url(#linearGradient-2)" points="30.7112 0.75 28.464 0.75 30.7112 44.25 32.9583 44.25"></polygon>
                <polygon id="Path" fill="#FFFFFF" points="14.2316 1.5 16.4788 1.5 14.2316 45 11.9845 45"></polygon>
                <path d="M37.6024,31.8751 C35.6548,34.2 36.9282,37.9501 39.9244,38.25 C40.0742,38.25 40.2239,38.25 40.3738,38.25 L40.4487,38.25 C43.6695,38.1751 45.2425,34.275 43.1452,31.8751 L41.3475,29.7 C40.8232,29.1 39.9244,29.1 39.4,29.7 L37.6024,31.8751 Z" id="Path" fill="url(#linearGradient-3)"></path>
                <path d="M1.64792,8.62505 C-0.299623,10.95 0.97378,14.7 3.96992,14.9999975 C4.11976,14.9999975 4.26951,14.9999975 4.41935,14.9999975 L4.49431,14.9999975 C7.71517,14.925 9.28816,11.025 7.19087,8.62505 L5.46804,6.45002 C4.94374,5.84999 4.04489,5.84999 3.5205,6.45002 L1.64792,8.62505 Z" id="Path" fill="url(#linearGradient-4)"></path>
                <path d="M1.64792,31.8751 C-0.299623,34.2 0.97378,37.9501 3.96992,38.25 C4.11976,38.25 4.26951,38.25 4.41935,38.25 L4.49431,38.25 C7.71517,38.1751 9.28816,34.275 7.19087,31.8751 L5.39317,29.7 C4.86887,29.1 3.97001,29.1 3.44562,29.7 L1.64792,31.8751 Z" id="Path" fill="url(#linearGradient-5)"></path>
                <path d="M37.6024,8.62505 C35.6548,10.95 36.9282,14.7 39.9244,14.9999975 C40.0742,14.9999975 40.224,14.9999975 40.3738,14.9999975 L40.4487,14.9999975 C43.6695,14.925 45.2425,11.025 43.1452,8.62505 L41.3475,6.45002 C40.8232,5.84999 39.9244,5.84999 39.4,6.45002 L37.6024,8.62505 Z" id="Path" fill="url(#linearGradient-6)"></path>
                <path d="M43.2948,8.62505 L41.4971,6.45002 C40.9728,5.84999 40.0739,5.84999 39.5495,6.45002 L39.3997,6.60005 L41.0475,8.55008 C42.9201,10.7251 41.8715,14.0251 39.3247,14.7751 C39.5494,14.8501 39.7741,14.9251 39.9988,14.9251 C40.1487,14.9251 40.2984,14.9251 40.4483,14.9251 L40.5232,14.9251 C43.7442,14.9251 45.3172,11.025 43.2948,8.62505 Z" id="Path" fill="url(#linearGradient-7)"></path>
                <path d="M43.2948,31.8751 L41.4971,29.7 C40.9728,29.1 40.0739,29.1 39.5495,29.7 L39.3997,29.8501 L41.0475,31.8001 C42.9201,33.9751 41.8715,37.2751 39.3247,38.0251 C39.5494,38.1001 39.7741,38.1751 39.9988,38.1751 C40.1487,38.1751 40.2984,38.1751 40.4483,38.1751 L40.5232,38.1751 C43.7442,38.1751 45.3172,34.2751 43.2948,31.8751 Z" id="Path" fill="url(#linearGradient-8)"></path>
                <path d="M7.34076,8.62505 L5.46809,6.45002 C4.94379,5.84999 4.04494,5.84999 3.52055,6.45002 L3.3708,6.60005 L5.01867,8.55008 C6.89125,10.7251 5.84265,14.0251 3.29584,14.7751 C3.52055,14.8501 3.74526,14.9251 3.96998,14.9251 C4.11982,14.9251 4.26957,14.9251 4.4194,14.9251 L4.49437,14.9251 C7.79019,14.9251 9.36318,11.025 7.34076,8.62505 Z" id="Path" fill="url(#linearGradient-9)"></path>
                <path d="M7.34118,31.8751 L5.54347,29.7 C5.01917,29.1 4.12031,29.1 3.59593,29.7 L3.44609,29.8501 L5.09396,31.8001 C6.96654,33.9751 5.91793,37.2751 3.37112,38.0251 C3.59584,38.1001 3.82055,38.1751 4.04526,38.1751 C4.1951,38.1751 4.34485,38.1751 4.49469,38.1751 L4.56957,38.1751 C7.7906,38.1751 9.36359,34.2751 7.34118,31.8751 Z" id="Path" fill="url(#linearGradient-10)"></path>
                <path d="M44.1936,1.49994 L0.749014,1.49994 C0.299588,1.49994 0,1.19997 0,0.749971 C0,0.299971 0.299588,0 0.749014,0 L44.1935,0 C44.6429,0 44.9425,0.299971 44.9425,0.749971 C44.9425,1.19997 44.643,1.49994 44.1936,1.49994 Z" id="Path" fill="#000000"></path>
                <path d="M32.9579,44.9999 L11.9847,44.9999 C11.76,44.9999 11.6101,44.9249 11.4604,44.7749 C11.3105,44.6249 11.2357,44.3999 11.2357,44.2499 L13.4828,0.74997 C13.4828,0.299971 13.8573,0 14.2318,0 L30.7107,0 C31.0853,0 31.4597,0.299971 31.4597,0.675 L33.707,44.1749 C33.707,44.3999 33.6321,44.55 33.4823,44.6999 C33.3324,44.9249 33.1827,44.9999 32.9579,44.9999 Z M12.8086,43.4999 L32.2088,43.4999 L30.0367,1.49994 L14.9059,1.49994 L12.8086,43.4999 Z" id="Shape" fill="#000000"></path>
                <path d="M22.4715,44.9999 C22.0221,44.9999 21.7225,44.7 21.7225,44.25 L21.7225,39.75 C21.7225,39.3 22.0221,39 22.4715,39 C22.9209,39 23.2205,39.3 23.2205,39.75 L23.2205,44.25 C23.2205,44.7 22.9209,44.9999 22.4715,44.9999 Z" id="Path" fill="#000000"></path>
                <path d="M22.4715,35.2499 C22.0221,35.2499 21.7225,34.95 21.7225,34.5 L21.7225,30 C21.7225,29.55 22.0221,29.25 22.4715,29.25 C22.9209,29.25 23.2205,29.55 23.2205,30 L23.2205,34.5 C23.2205,34.95 22.9209,35.2499 22.4715,35.2499 Z" id="Path" fill="#000000"></path>
                <path d="M22.4715,25.5 C22.0221,25.5 21.7225,25.2 21.7225,24.75 L21.7225,20.25 C21.7225,19.8 22.0221,19.5 22.4715,19.5 C22.9209,19.5 23.2205,19.8 23.2205,20.25 L23.2205,24.75 C23.2205,25.1999 22.9209,25.5 22.4715,25.5 Z" id="Path" fill="#000000"></path>
                <path d="M22.4715,15.7499 C22.0221,15.7499 21.7225,15.45 21.7225,15 L21.7225,10.5 C21.7225,10.05 22.0221,9.75 22.4715,9.75 C22.9209,9.75 23.2205,10.05 23.2205,10.5 L23.2205,15 C23.2205,15.45 22.9209,15.7499 22.4715,15.7499 Z" id="Path" fill="#000000"></path>
                <path d="M22.4715,5.99994 C22.0221,5.99994 21.7225,5.69997 21.7225,5.24997 L21.7225,0.749971 C21.7225,0.299971 22.0221,0 22.4715,0 C22.9209,0 23.2205,0.299971 23.2205,0.749971 L23.2205,5.24997 C23.2205,5.69997 22.9209,5.99994 22.4715,5.99994 Z" id="Path" fill="#000000"></path>
                <path d="M4.49457,15.7508 C4.34473,15.7508 4.12002,15.7508 3.97027,15.7508 C2.3224,15.6007 0.974123,14.5508 0.374859,12.9758 C-0.29928,11.3258 0.000308212,9.52579 1.12387,8.17579 L2.92158,6.00076 C3.74556,5.02579 5.24358,5.02579 6.06756,6.00076 L7.86527,8.17579 C9.06371,9.60076 9.28842,11.4758 8.5394,13.1258 C7.79039,14.7008 6.29227,15.7508 4.56945,15.7508 L4.49457,15.7508 L4.49457,15.7508 Z M4.49457,6.75073 C4.41969,6.75073 4.26986,6.75073 4.12002,6.90076 L2.24744,9.07579 C1.49842,9.97579 1.27371,11.2508 1.72314,12.3758 C2.17256,13.4258 2.99654,14.1008 4.12011,14.2508 C4.26994,14.2508 4.41969,14.2508 4.49466,14.2508 L4.49466,15.0008 L4.56953,14.2508 C5.76797,14.2508 6.74179,13.5758 7.19121,12.4508 C7.71552,11.3258 7.56577,9.97579 6.74179,9.07579 L4.944,6.90076 C4.79416,6.75073 4.56944,6.75073 4.49457,6.75073 Z" id="Shape" fill="#000000"></path>
                <path d="M4.49428,19.4999 C4.04486,19.4999 3.74527,19.2 3.74527,18.75 L3.74527,12 C3.74527,11.55 4.04486,11.25 4.49428,11.25 C4.94371,11.25 5.2433,11.55 5.2433,12 L5.2433,18.75 C5.2433,19.2 4.94371,19.4999 4.49428,19.4999 Z" id="Path" fill="#000000"></path>
                <path d="M4.49457,38.9993 C4.34473,38.9993 4.12002,38.9993 3.97027,38.9993 C2.3224,38.8493 0.974123,37.7993 0.374859,36.2243 C-0.29928,34.5743 0.000308214,32.7743 1.12387,31.4243 L2.92158,29.2492 C3.67059,28.3492 5.24358,28.3492 5.99269,29.2492 L7.79039,31.4243 C8.98883,32.8492 9.21354,34.7243 8.46453,36.3743 C7.71543,37.9493 6.2174,38.9993 4.49457,38.9993 Z M4.49457,29.9993 C4.41969,29.9993 4.19498,29.9993 4.12002,30.2243 L2.24744,32.3242 C1.49842,33.2242 1.27371,34.4993 1.72314,35.6243 C2.17256,36.6743 2.99654,37.3493 4.12011,37.4993 C4.26994,37.4993 4.34482,37.4993 4.49466,37.4993 L4.49466,38.2492 L4.56953,37.4993 C5.76797,37.4993 6.74179,36.8243 7.19121,35.6993 C7.71551,34.5743 7.56576,33.2242 6.74179,32.3242 L4.94408,30.1492 C4.79416,29.9993 4.56944,29.9993 4.49457,29.9993 Z" id="Shape" fill="#000000"></path>
                <path d="M4.49428,42.7499 C4.04486,42.7499 3.74527,42.45 3.74527,42 L3.74527,35.25 C3.74527,34.8 4.04486,34.5 4.49428,34.5 C4.94371,34.5 5.2433,34.8 5.2433,35.25 L5.2433,42 C5.2433,42.45 4.94371,42.7499 4.49428,42.7499 Z" id="Path" fill="#000000"></path>
                <path d="M40.4482,15.7492 C40.2983,15.7492 40.0736,15.7492 39.9239,15.7492 C38.276,15.5992 36.9277,14.5492 36.3284,12.9742 C35.6543,11.3243 35.9539,9.52425 37.0775,8.17425 L38.8752,5.99922 C39.6242,5.09922 41.1972,5.09922 41.9463,5.99922 L43.744,8.17425 C44.9424,9.59922 45.1671,11.4743 44.4181,13.1992 C43.6691,14.7742 42.171,15.8243 40.4482,15.8243 L40.4482,15.7492 Z M40.4482,6.74919 C40.3733,6.74919 40.1486,6.74919 40.0736,6.97419 L38.201,9.07425 C37.452,9.97425 37.2273,11.2493 37.6767,12.3743 C38.1262,13.4243 38.9501,14.0993 40.0737,14.2493 C40.2235,14.2493 40.2984,14.2493 40.4482,14.2493 L40.4482,14.9992 L40.5231,14.2493 C41.7216,14.2493 42.6954,13.5743 43.1448,12.4493 C43.6691,11.3243 43.5194,9.97425 42.6954,9.07425 L40.8977,6.89922 C40.7478,6.74919 40.523,6.74919 40.4482,6.74919 Z" id="Shape" fill="#000000"></path>
                <path d="M40.4487,19.4999 C39.9993,19.4999 39.6997,19.2 39.6997,18.75 L39.6997,12 C39.6997,11.55 39.9993,11.25 40.4487,11.25 C40.8981,11.25 41.1977,11.55 41.1977,12 L41.1977,18.75 C41.1977,19.2 40.8981,19.4999 40.4487,19.4999 Z" id="Path" fill="#000000"></path>
                <path d="M40.4482,39 C40.2983,39 40.0736,39 39.9239,39 C38.276,38.8499 36.9277,37.8 36.3284,36.225 C35.6543,34.575 35.9539,32.775 37.0775,31.425 L38.95,29.25 C39.3246,28.8 39.9238,28.5 40.523,28.5 C41.1223,28.5 41.6466,28.725 42.096,29.25 L43.8937,31.425 C45.0922,32.85 45.3169,34.725 44.5679,36.375 C43.8189,37.95 42.3207,39 40.5979,39 L40.4482,39 Z M40.4482,29.9999 C40.3733,29.9999 40.1486,29.9999 40.0736,30.2249 L38.201,32.3249 C37.452,33.2249 37.2273,34.4999 37.6767,35.6249 C38.1261,36.675 38.9501,37.35 40.0737,37.4999 C40.2235,37.4999 40.2984,37.4999 40.4482,37.4999 L40.4482,38.2499 L40.5231,37.4999 C41.7216,37.4999 42.6954,36.8249 43.1448,35.6999 C43.6691,34.5749 43.5194,33.2249 42.6954,32.3249 L40.8977,30.1499 C40.7477,29.9999 40.523,29.9999 40.4482,29.9999 Z" id="Shape" fill="#000000"></path>
                <path d="M40.4487,42.7499 C39.9993,42.7499 39.6997,42.45 39.6997,42 L39.6997,35.25 C39.6997,34.8 39.9993,34.5 40.4487,34.5 C40.8981,34.5 41.1977,34.8 41.1977,35.25 L41.1977,42 C41.1977,42.45 40.8981,42.7499 40.4487,42.7499 Z" id="Path" fill="#000000"></path>
            </g>
        </g>
    </g>
</svg>