<svg width="100" height="100" viewBox="0 0 100 100" fill="none" xmlns="http://www.w3.org/2000/svg">
                  <g filter="url(#filter0_d)">
                    <path d="M75.1883 54.7749V50.2048C77.5165 47.8068 81.9726 43.4764 83.0831 37.9284C83.4137 38.1123 83.2111 38.2311 83.579 38.2311C85.3437 38.2311 86.5031 35.9425 86.5031 33.1161C86.5031 30.3363 84.9759 28.085 83.2461 28.0151C83.579 26.8138 83.7396 25.2074 83.7396 23.1446C83.7396 16.2626 77.8052 8 64.5254 8C52.7263 8 45.3321 16.2626 45.3321 23.1446C45.3321 25.1422 45.4508 26.7812 45.6627 28.0501C44.04 28.2945 42.7595 30.455 42.7595 33.1138C42.7595 35.9402 44.189 38.2287 45.956 38.2287C46.3215 38.2287 45.7954 38.11 46.1237 37.9261C47.2342 43.4764 51.9068 47.8044 54.2349 50.2048V54.5049C44.9223 55.6503 37.9379 60.6232 37.9379 65.5985V67.4843C37.9379 69.3748 39.8539 69.3748 41.7421 69.3748H85.3484C87.2412 69.3748 89.1572 69.3748 89.1572 67.4843V65.5985C89.1572 60.9399 82.1728 56.2929 75.1883 54.7749Z" fill="#7583C7"></path>
                    <path d="M47.2505 73.4002V68.83C49.5786 66.432 54.0347 62.1016 55.1452 56.5537C55.4758 56.7376 55.2733 56.8563 55.6411 56.8563C57.4059 56.8563 58.5653 54.5677 58.5653 51.7414C58.5653 48.9615 57.038 46.7102 55.3082 46.6404C55.6411 45.4391 55.8018 43.8326 55.8018 41.7699C55.8018 34.8879 49.8673 26.6252 36.5875 26.6252C24.7861 26.6252 17.3942 34.8879 17.3942 41.7699C17.3942 43.7674 17.513 45.4065 17.7248 46.6753C16.1021 46.9198 14.8216 49.0803 14.8216 51.739C14.8216 54.5654 16.2511 56.854 18.0182 56.854C18.3837 56.854 17.8575 56.7353 18.1858 56.5513C19.2963 62.1016 23.9689 66.4297 26.2971 68.83V73.1301C16.9845 74.2756 10 79.2485 10 84.2238V86.1119C10 88 11.9161 88 13.8042 88H57.4105C59.3033 88 61.2194 88 61.2194 86.1096V84.2214C61.2194 79.5651 54.2349 74.9181 47.2505 73.4002Z" fill="#313B6C"></path>
                  </g>
                  <defs>
                    <filter id="filter0_d" x="0" y="0" width="99.1572" height="100" filterUnits="userSpaceOnUse" color-interpolation-filters="sRGB">
                      <feFlood flood-opacity="0" result="BackgroundImageFix"></feFlood>
                      <feColorMatrix in="SourceAlpha" type="matrix" values="0 0 0 0 0 0 0 0 0 0 0 0 0 0 0 0 0 0 127 0"></feColorMatrix>
                      <feOffset dy="2"></feOffset>
                      <feGaussianBlur stdDeviation="5"></feGaussianBlur>
                      <feColorMatrix type="matrix" values="0 0 0 0 0 0 0 0 0 0 0 0 0 0 0 0 0 0 0.08 0"></feColorMatrix>
                      <feBlend mode="normal" in2="BackgroundImageFix" result="effect1_dropShadow"></feBlend>
                      <feBlend mode="normal" in="SourceGraphic" in2="effect1_dropShadow" result="shape"></feBlend>
                    </filter>
                  </defs>
                </svg>