<svg width="197" height="63" viewBox="0 0 197 63" fill="none" xmlns="http://www.w3.org/2000/svg">
                <path d="M111.102 20.1754L115.372 13.8049L111.77 8.10547H114.592L116.708 11.8522L118.933 8.10547H121.755L118.045 13.8049L122.17 20.1754H119.353L116.711 15.7602L113.924 20.1754H111.102Z" fill="#100F0F"></path>
                <path d="M132.129 20.1771L131.061 17.6432H126.194L125.127 20.1771H122.574L127.803 7.85352H129.576L134.663 20.1771H132.129ZM126.934 15.7275H130.372L128.67 11.3836L126.934 15.7275Z" fill="#100F0F"></path>
                <path d="M136.074 8.10547H138.426V18.1488H142.154V20.1754H136.074V8.10547Z" fill="#100F0F"></path>
                <path d="M154.044 20.6464L153.047 19.5789C152.07 20.1576 150.923 20.4483 149.61 20.4483C147.715 20.4483 146.17 19.859 144.967 18.6832C143.768 17.5074 143.168 15.996 143.168 14.1491C143.168 12.3021 143.768 10.7907 144.967 9.60696C146.167 8.42586 147.715 7.83398 149.61 7.83398C151.504 7.83398 153.05 8.42586 154.252 9.60696C155.452 10.7907 156.052 12.3021 156.052 14.1491C156.052 15.8269 155.521 17.2564 154.458 18.4375L156.414 20.4086L154.044 20.6464ZM151.438 15.3275L152.831 16.757C153.362 16.0462 153.626 15.1769 153.626 14.1517C153.626 12.9336 153.248 11.9322 152.495 11.1474C151.742 10.3627 150.778 9.9716 149.61 9.9716C148.439 9.9716 147.478 10.3627 146.724 11.1474C145.971 11.9322 145.594 12.9336 145.594 14.1517C145.594 15.3698 145.971 16.3686 146.724 17.1454C147.478 17.9222 148.458 18.3133 149.665 18.3133C150.329 18.3133 150.926 18.1812 151.457 17.9143L148.997 15.5257L151.438 15.3275Z" fill="#100F0F"></path>
                <path d="M114.686 41.8929H112.334V29.5508H113.962L121.31 37.948V29.8229H123.661V42.1281H122.034L114.688 33.7309V41.8929H114.686Z" fill="#100F0F"></path>
                <path d="M134.625 41.8939L133.557 39.36H128.69L127.623 41.8939H125.07L130.299 29.5703H132.072L137.159 41.8939H134.625ZM129.43 37.4417H132.868L131.166 33.0978L129.43 37.4417Z" fill="#100F0F"></path>
                <path d="M147.366 29.8223L141.502 39.8656H147.075V41.8922H137.592L143.455 31.8489H138.514V29.8223H147.366Z" fill="#100F0F"></path>
                <path d="M149.891 31.3238C151.091 30.1427 152.639 29.5508 154.534 29.5508C156.428 29.5508 157.974 30.1427 159.176 31.3238C160.376 32.5049 160.976 34.0189 160.976 35.8658C160.976 37.7128 160.376 39.2215 159.176 40.4C157.977 41.5758 156.428 42.1651 154.534 42.1651C152.639 42.1651 151.093 41.5758 149.891 40.4C148.692 39.2242 148.092 37.7128 148.092 35.8658C148.092 34.0189 148.692 32.5075 149.891 31.3238ZM151.638 38.8622C152.386 39.639 153.35 40.0301 154.534 40.0301C155.715 40.0301 156.682 39.6417 157.43 38.8622C158.177 38.0827 158.553 37.0866 158.553 35.8685C158.553 34.6504 158.175 33.649 157.422 32.8642C156.669 32.0794 155.704 31.6884 154.536 31.6884C153.366 31.6884 152.404 32.0794 151.651 32.8642C150.898 33.649 150.52 34.6504 150.52 35.8685C150.515 37.0839 150.89 38.0827 151.638 38.8622Z" fill="#100F0F"></path>
                <path d="M163.145 29.8223H166.638C167.964 29.8223 168.989 30.1235 169.713 30.7259C170.509 31.4024 170.908 32.306 170.908 33.4396C170.908 34.6946 170.437 35.6406 169.497 36.28C169.135 36.5337 168.693 36.7081 168.175 36.8058L171.941 41.8896H169.01L165.789 37.041H165.499V41.8896H163.147V29.8223H163.145ZM165.499 31.7406V35.379H166.167C166.36 35.379 166.55 35.3631 166.738 35.3341C166.926 35.305 167.169 35.239 167.47 35.1359C167.771 35.0329 168.017 34.8453 168.202 34.5757C168.389 34.3036 168.482 33.9627 168.482 33.5532C168.482 33.1436 168.392 32.8028 168.21 32.5306C168.027 32.2585 167.787 32.0735 167.486 31.9704C167.185 31.8674 166.944 31.804 166.762 31.7802C166.58 31.7564 166.395 31.7432 166.202 31.7432H165.499V31.7406Z" fill="#100F0F"></path>
                <path d="M181.75 41.8939L180.682 39.36H175.815L174.748 41.8939H172.195L177.424 29.5703H179.197L184.284 41.8939H181.75ZM176.555 37.4417H179.993L178.291 33.0978L176.555 37.4417Z" fill="#100F0F"></path>
                <path d="M191.591 31.8489H188.878V41.8922H186.526V31.8489H183.812V29.8223H191.594V31.8489H191.591Z" fill="#100F0F"></path>
                <path d="M193.074 29.8223H195.426V41.8922H193.074V29.8223Z" fill="#100F0F"></path>
                <path d="M95.2578 0V50" stroke="#B2B7D0" stroke-width="0.506043" stroke-miterlimit="10"></path>
                <path d="M10.3023 4.39453C4.61343 4.39453 0 9.00532 0 14.6968C0 20.3883 4.61343 24.9991 10.3023 24.9991C15.9938 24.9991 20.6046 20.3857 20.6046 14.6968C20.6046 9.00796 15.9938 4.39453 10.3023 4.39453ZM10.3023 21.0489C6.79332 21.0489 3.95022 18.2058 3.95022 14.6968C3.95022 11.1879 6.79332 8.34475 10.3023 8.34475C13.8112 8.34475 16.6543 11.1879 16.6543 14.6968C16.6543 18.2058 13.8112 21.0489 10.3023 21.0489Z" fill="#00D8C6"></path>
                <path d="M12.2783 29.6562H8.32812V45.6051H12.2783V29.6562Z" fill="#00D8C6"></path>
                <path d="M11.2928 21.3652H9.31641V34.3045H11.2928V21.3652Z" fill="#00D8C6"></path>
                <path d="M36.5093 4.39453C30.8178 4.39453 26.207 9.00796 26.207 14.6968C26.207 20.3857 30.8205 24.9991 36.5093 24.9991C42.2008 24.9991 46.8116 20.3857 46.8116 14.6968C46.8116 9.00796 42.2008 4.39453 36.5093 4.39453ZM36.5093 21.0489C33.0003 21.0489 30.1572 18.2058 30.1572 14.6968C30.1572 11.1879 33.0003 8.34475 36.5093 8.34475C40.0183 8.34475 42.8614 11.1879 42.8614 14.6968C42.8614 18.2058 40.0183 21.0489 36.5093 21.0489Z" fill="#41D4FF"></path>
                <path d="M38.4854 29.6562H34.5352V45.6051H38.4854V29.6562Z" fill="#41D4FF"></path>
                <path d="M37.4999 21.3652H35.5234V34.3045H37.4999V21.3652Z" fill="#41D4FF"></path>
                <path d="M62.7163 4.39453C57.0249 4.39453 52.4141 9.00796 52.4141 14.6968C52.4141 20.3857 57.0275 24.9991 62.7163 24.9991C68.4078 24.9991 73.0186 20.3857 73.0186 14.6968C73.0186 9.00796 68.4052 4.39453 62.7163 4.39453ZM62.7163 21.0489C59.2074 21.0489 56.3643 18.2058 56.3643 14.6968C56.3643 11.1879 59.2074 8.34475 62.7163 8.34475C66.2253 8.34475 69.0684 11.1879 69.0684 14.6968C69.0684 18.2058 66.2227 21.0489 62.7163 21.0489Z" fill="#B2B7D0"></path>
                <path d="M64.6885 29.6562H60.7383V45.6051H64.6885V29.6562Z" fill="#B2B7D0"></path>
                <path d="M63.703 21.3652H61.7266V34.3045H63.703V21.3652Z" fill="#B2B7D0"></path>
              </svg>